<?xml version="1.0" encoding="UTF-8" standalone="no"?>
<!DOCTYPE svg PUBLIC "-//W3C//DTD SVG 1.1//EN"
 "http://www.w3.org/Graphics/SVG/1.1/DTD/svg11.dtd">
<!-- Generated by graphviz version 2.30.1 (20130221.2233)
 -->
<!-- Title: controllers_diagram Pages: 1 -->
<svg width="735pt" height="704pt"
 viewBox="0.00 0.00 735.38 704.06" xmlns="http://www.w3.org/2000/svg" xmlns:xlink="http://www.w3.org/1999/xlink">
<g id="graph0" class="graph" transform="scale(1 1) rotate(0) translate(4 700.059)">
<title>controllers_diagram</title>
<polygon fill="white" stroke="white" points="-4,5 -4,-700.059 732.375,-700.059 732.375,5 -4,5"/>
<!-- _diagram_info -->
<g id="node1" class="node"><title>_diagram_info</title>
<text text-anchor="start" x="528" y="-381" font-family="Times,serif" font-size="13.00">Controllers diagram</text>
<text text-anchor="start" x="528" y="-365.4" font-family="Times,serif" font-size="13.00">Date: May 18 2013 &#45; 03:20</text>
<text text-anchor="start" x="528" y="-349.8" font-family="Times,serif" font-size="13.00">Migration version: 20130516195008</text>
<text text-anchor="start" x="528" y="-334.2" font-family="Times,serif" font-size="13.00">Generated by RailRoady 1.1.0</text>
<text text-anchor="start" x="528" y="-318.6" font-family="Times,serif" font-size="13.00">http://railroady.prestonlee.com</text>
</g>
<!-- ApplicationController -->
<g id="node2" class="node"><title>ApplicationController</title>
<path fill="none" stroke="black" d="M220.226,-273.381C220.226,-273.381 398.861,-273.381 398.861,-273.381 404.861,-273.381 410.861,-279.381 410.861,-285.381 410.861,-285.381 410.861,-376.581 410.861,-376.581 410.861,-382.581 404.861,-388.581 398.861,-388.581 398.861,-388.581 220.226,-388.581 220.226,-388.581 214.226,-388.581 208.226,-382.581 208.226,-376.581 208.226,-376.581 208.226,-285.381 208.226,-285.381 208.226,-279.381 214.226,-273.381 220.226,-273.381"/>
<text text-anchor="middle" x="309.543" y="-370.581" font-family="Times,serif" font-size="14.00">ApplicationController</text>
<polyline fill="none" stroke="black" points="208.226,-363.781 410.861,-363.781 "/>
<text text-anchor="start" x="216.226" y="-345.781" font-family="Times,serif" font-size="14.00">_one_time_conditions_valid_12?</text>
<text text-anchor="start" x="216.226" y="-328.981" font-family="Times,serif" font-size="14.00">current_user</text>
<polyline fill="none" stroke="black" points="208.226,-322.181 410.861,-322.181 "/>
<polyline fill="none" stroke="black" points="208.226,-298.181 410.861,-298.181 "/>
<text text-anchor="start" x="216.226" y="-280.181" font-family="Times,serif" font-size="14.00">_layout</text>
</g>
<!-- AuthenticationController -->
<g id="node3" class="node"><title>AuthenticationController</title>
<path fill="none" stroke="black" d="M447.006,-0.5C447.006,-0.5 579.751,-0.5 579.751,-0.5 585.751,-0.5 591.751,-6.5 591.751,-12.5 591.751,-12.5 591.751,-204.5 591.751,-204.5 591.751,-210.5 585.751,-216.5 579.751,-216.5 579.751,-216.5 447.006,-216.5 447.006,-216.5 441.006,-216.5 435.006,-210.5 435.006,-204.5 435.006,-204.5 435.006,-12.5 435.006,-12.5 435.006,-6.5 441.006,-0.5 447.006,-0.5"/>
<text text-anchor="middle" x="513.378" y="-198.5" font-family="Times,serif" font-size="14.00">AuthenticationController</text>
<polyline fill="none" stroke="black" points="435.006,-191.7 591.751,-191.7 "/>
<text text-anchor="start" x="443.006" y="-173.7" font-family="Times,serif" font-size="14.00">admin</text>
<text text-anchor="start" x="443.006" y="-156.9" font-family="Times,serif" font-size="14.00">all_user</text>
<text text-anchor="start" x="443.006" y="-140.1" font-family="Times,serif" font-size="14.00">exam_permissions</text>
<text text-anchor="start" x="443.006" y="-123.3" font-family="Times,serif" font-size="14.00">login</text>
<text text-anchor="start" x="443.006" y="-106.5" font-family="Times,serif" font-size="14.00">new_user</text>
<text text-anchor="start" x="443.006" y="-89.7" font-family="Times,serif" font-size="14.00">register</text>
<text text-anchor="start" x="443.006" y="-72.9" font-family="Times,serif" font-size="14.00">sign_in</text>
<text text-anchor="start" x="443.006" y="-56.1" font-family="Times,serif" font-size="14.00">signed_out</text>
<polyline fill="none" stroke="black" points="435.006,-49.3 591.751,-49.3 "/>
<polyline fill="none" stroke="black" points="435.006,-25.3 591.751,-25.3 "/>
<text text-anchor="start" x="443.006" y="-7.3" font-family="Times,serif" font-size="14.00">_layout</text>
</g>
<!-- ApplicationController&#45;&gt;AuthenticationController -->
<g id="edge1" class="edge"><title>ApplicationController&#45;&gt;AuthenticationController</title>
<path fill="none" stroke="black" d="M362.566,-273.107C384.625,-249.031 410.688,-220.584 434.888,-194.17"/>
</g>
<!-- HomeController -->
<g id="node4" class="node"><title>HomeController</title>
<path fill="none" stroke="black" d="M59.5434,-59.8496C59.5434,-59.8496 143.302,-59.8496 143.302,-59.8496 149.302,-59.8496 155.302,-65.8496 155.302,-71.8496 155.302,-71.8496 155.302,-146.25 155.302,-146.25 155.302,-152.25 149.302,-158.25 143.302,-158.25 143.302,-158.25 59.5434,-158.25 59.5434,-158.25 53.5434,-158.25 47.5434,-152.25 47.5434,-146.25 47.5434,-146.25 47.5434,-71.8496 47.5434,-71.8496 47.5434,-65.8496 53.5434,-59.8496 59.5434,-59.8496"/>
<text text-anchor="middle" x="101.423" y="-140.25" font-family="Times,serif" font-size="14.00">HomeController</text>
<polyline fill="none" stroke="black" points="47.5434,-133.45 155.302,-133.45 "/>
<text text-anchor="start" x="55.5434" y="-115.45" font-family="Times,serif" font-size="14.00">index</text>
<polyline fill="none" stroke="black" points="47.5434,-108.65 155.302,-108.65 "/>
<polyline fill="none" stroke="black" points="47.5434,-84.6496 155.302,-84.6496 "/>
<text text-anchor="start" x="55.5434" y="-66.6496" font-family="Times,serif" font-size="14.00">_layout</text>
</g>
<!-- ApplicationController&#45;&gt;HomeController -->
<g id="edge2" class="edge"><title>ApplicationController&#45;&gt;HomeController</title>
<path fill="none" stroke="black" d="M255.405,-273.25C222.044,-237.675 179.71,-192.532 147.877,-158.587"/>
</g>
<!-- QuizzsController -->
<g id="node5" class="node"><title>QuizzsController</title>
<path fill="none" stroke="black" d="M12,-412.359C12,-412.359 190.635,-412.359 190.635,-412.359 196.635,-412.359 202.635,-418.359 202.635,-424.359 202.635,-424.359 202.635,-683.559 202.635,-683.559 202.635,-689.559 196.635,-695.559 190.635,-695.559 190.635,-695.559 12,-695.559 12,-695.559 6,-695.559 0,-689.559 0,-683.559 0,-683.559 0,-424.359 0,-424.359 0,-418.359 6,-412.359 12,-412.359"/>
<text text-anchor="middle" x="101.317" y="-677.559" font-family="Times,serif" font-size="14.00">QuizzsController</text>
<polyline fill="none" stroke="black" points="0,-670.759 202.635,-670.759 "/>
<text text-anchor="start" x="8" y="-652.759" font-family="Times,serif" font-size="14.00">_one_time_conditions_valid_18?</text>
<text text-anchor="start" x="8" y="-635.959" font-family="Times,serif" font-size="14.00">answer</text>
<text text-anchor="start" x="8" y="-619.159" font-family="Times,serif" font-size="14.00">check</text>
<text text-anchor="start" x="8" y="-602.359" font-family="Times,serif" font-size="14.00">create</text>
<text text-anchor="start" x="8" y="-585.559" font-family="Times,serif" font-size="14.00">destroy</text>
<text text-anchor="start" x="8" y="-568.759" font-family="Times,serif" font-size="14.00">edit</text>
<text text-anchor="start" x="8" y="-551.959" font-family="Times,serif" font-size="14.00">index</text>
<text text-anchor="start" x="8" y="-535.159" font-family="Times,serif" font-size="14.00">new</text>
<text text-anchor="start" x="8" y="-518.359" font-family="Times,serif" font-size="14.00">percentage</text>
<text text-anchor="start" x="8" y="-501.559" font-family="Times,serif" font-size="14.00">questions</text>
<text text-anchor="start" x="8" y="-484.759" font-family="Times,serif" font-size="14.00">show</text>
<text text-anchor="start" x="8" y="-467.959" font-family="Times,serif" font-size="14.00">update</text>
<polyline fill="none" stroke="black" points="0,-461.159 202.635,-461.159 "/>
<polyline fill="none" stroke="black" points="0,-437.159 202.635,-437.159 "/>
<text text-anchor="start" x="8" y="-419.159" font-family="Times,serif" font-size="14.00">_layout</text>
</g>
<!-- ApplicationController&#45;&gt;QuizzsController -->
<g id="edge3" class="edge"><title>ApplicationController&#45;&gt;QuizzsController</title>
<path fill="none" stroke="black" d="M255.649,-388.693C239.382,-406.113 220.963,-425.837 202.659,-445.438"/>
</g>
<!-- SessionsController -->
<g id="node6" class="node"><title>SessionsController</title>
<path fill="none" stroke="black" d="M463.886,-506.007C463.886,-506.007 561.665,-506.007 561.665,-506.007 567.665,-506.007 573.665,-512.007 573.665,-518.007 573.665,-518.007 573.665,-592.407 573.665,-592.407 573.665,-598.407 567.665,-604.407 561.665,-604.407 561.665,-604.407 463.886,-604.407 463.886,-604.407 457.886,-604.407 451.886,-598.407 451.886,-592.407 451.886,-592.407 451.886,-518.007 451.886,-518.007 451.886,-512.007 457.886,-506.007 463.886,-506.007"/>
<text text-anchor="middle" x="512.776" y="-586.407" font-family="Times,serif" font-size="14.00">SessionsController</text>
<polyline fill="none" stroke="black" points="451.886,-579.607 573.665,-579.607 "/>
<text text-anchor="start" x="459.886" y="-561.607" font-family="Times,serif" font-size="14.00">new</text>
<polyline fill="none" stroke="black" points="451.886,-554.807 573.665,-554.807 "/>
<polyline fill="none" stroke="black" points="451.886,-530.807 573.665,-530.807 "/>
<text text-anchor="start" x="459.886" y="-512.807" font-family="Times,serif" font-size="14.00">_layout</text>
</g>
<!-- ApplicationController&#45;&gt;SessionsController -->
<g id="edge4" class="edge"><title>ApplicationController&#45;&gt;SessionsController</title>
<path fill="none" stroke="black" d="M361.881,-388.725C394.694,-424.927 436.553,-471.11 467.855,-505.646"/>
</g>
</g>
</svg>
