<?xml version="1.0" encoding="UTF-8" standalone="no"?>
<!DOCTYPE svg PUBLIC "-//W3C//DTD SVG 1.1//EN"
 "http://www.w3.org/Graphics/SVG/1.1/DTD/svg11.dtd">
<!-- Generated by graphviz version 2.30.1 (20130221.2233)
 -->
<!-- Title: models_diagram Pages: 1 -->
<svg width="802pt" height="194pt"
 viewBox="0.00 0.00 802.00 194.00" xmlns="http://www.w3.org/2000/svg" xmlns:xlink="http://www.w3.org/1999/xlink">
<g id="graph0" class="graph" transform="scale(1 1) rotate(0) translate(4 190)">
<title>models_diagram</title>
<polygon fill="white" stroke="white" points="-4,5 -4,-190 799,-190 799,5 -4,5"/>
<!-- _diagram_info -->
<g id="node1" class="node"><title>_diagram_info</title>
<text text-anchor="start" x="7.31226" y="-119" font-family="Times,serif" font-size="13.00">Models diagram</text>
<text text-anchor="start" x="7.31226" y="-103.4" font-family="Times,serif" font-size="13.00">Date: May 18 2013 &#45; 03:20</text>
<text text-anchor="start" x="7.31226" y="-87.8" font-family="Times,serif" font-size="13.00">Migration version: 20130516195008</text>
<text text-anchor="start" x="7.31226" y="-72.2" font-family="Times,serif" font-size="13.00">Generated by RailRoady 1.1.0</text>
<text text-anchor="start" x="7.31226" y="-56.6" font-family="Times,serif" font-size="13.00">http://railroady.prestonlee.com</text>
</g>
<!-- Admin -->
<g id="node2" class="node"><title>Admin</title>
<path fill="none" stroke="black" d="M236.54,-51.4C236.54,-51.4 321.46,-51.4 321.46,-51.4 327.46,-51.4 333.46,-57.4 333.46,-63.4 333.46,-63.4 333.46,-122.6 333.46,-122.6 333.46,-128.6 327.46,-134.6 321.46,-134.6 321.46,-134.6 236.54,-134.6 236.54,-134.6 230.54,-134.6 224.54,-128.6 224.54,-122.6 224.54,-122.6 224.54,-63.4 224.54,-63.4 224.54,-57.4 230.54,-51.4 236.54,-51.4"/>
<text text-anchor="middle" x="279" y="-116.6" font-family="Times,serif" font-size="14.00">Admin</text>
<polyline fill="none" stroke="black" points="224.54,-109.8 333.46,-109.8 "/>
<text text-anchor="start" x="232.54" y="-91.8" font-family="Times,serif" font-size="14.00">id :integer</text>
<text text-anchor="start" x="232.54" y="-75" font-family="Times,serif" font-size="14.00">username :string</text>
<text text-anchor="start" x="232.54" y="-58.2" font-family="Times,serif" font-size="14.00">password :string</text>
</g>
<!-- Quizz -->
<g id="node3" class="node"><title>Quizz</title>
<path fill="none" stroke="black" d="M363.495,-1C363.495,-1 472.505,-1 472.505,-1 478.505,-1 484.505,-7 484.505,-13 484.505,-13 484.505,-173 484.505,-173 484.505,-179 478.505,-185 472.505,-185 472.505,-185 363.495,-185 363.495,-185 357.495,-185 351.495,-179 351.495,-173 351.495,-173 351.495,-13 351.495,-13 351.495,-7 357.495,-1 363.495,-1"/>
<text text-anchor="middle" x="418" y="-167" font-family="Times,serif" font-size="14.00">Quizz</text>
<polyline fill="none" stroke="black" points="351.495,-160.2 484.505,-160.2 "/>
<text text-anchor="start" x="359.495" y="-142.2" font-family="Times,serif" font-size="14.00">id :integer</text>
<text text-anchor="start" x="359.495" y="-125.4" font-family="Times,serif" font-size="14.00">question :text</text>
<text text-anchor="start" x="359.495" y="-108.6" font-family="Times,serif" font-size="14.00">ans1 :text</text>
<text text-anchor="start" x="359.495" y="-91.8" font-family="Times,serif" font-size="14.00">ans2 :text</text>
<text text-anchor="start" x="359.495" y="-75" font-family="Times,serif" font-size="14.00">ans3 :text</text>
<text text-anchor="start" x="359.495" y="-58.2" font-family="Times,serif" font-size="14.00">ans4 :text</text>
<text text-anchor="start" x="359.495" y="-41.4" font-family="Times,serif" font-size="14.00">correctAns :text</text>
<text text-anchor="start" x="359.495" y="-24.6" font-family="Times,serif" font-size="14.00">created_at :datetime</text>
<text text-anchor="start" x="359.495" y="-7.8" font-family="Times,serif" font-size="14.00">updated_at :datetime</text>
</g>
<!-- Result -->
<g id="node4" class="node"><title>Result</title>
<path fill="none" stroke="black" d="M514.495,-26.2C514.495,-26.2 623.505,-26.2 623.505,-26.2 629.505,-26.2 635.505,-32.2 635.505,-38.2 635.505,-38.2 635.505,-147.8 635.505,-147.8 635.505,-153.8 629.505,-159.8 623.505,-159.8 623.505,-159.8 514.495,-159.8 514.495,-159.8 508.495,-159.8 502.495,-153.8 502.495,-147.8 502.495,-147.8 502.495,-38.2 502.495,-38.2 502.495,-32.2 508.495,-26.2 514.495,-26.2"/>
<text text-anchor="middle" x="569" y="-141.8" font-family="Times,serif" font-size="14.00">Result</text>
<polyline fill="none" stroke="black" points="502.495,-135 635.505,-135 "/>
<text text-anchor="start" x="510.495" y="-117" font-family="Times,serif" font-size="14.00">id :integer</text>
<text text-anchor="start" x="510.495" y="-100.2" font-family="Times,serif" font-size="14.00">userid :string</text>
<text text-anchor="start" x="510.495" y="-83.4" font-family="Times,serif" font-size="14.00">questionid :string</text>
<text text-anchor="start" x="510.495" y="-66.6" font-family="Times,serif" font-size="14.00">status :string</text>
<text text-anchor="start" x="510.495" y="-49.8" font-family="Times,serif" font-size="14.00">created_at :datetime</text>
<text text-anchor="start" x="510.495" y="-33" font-family="Times,serif" font-size="14.00">updated_at :datetime</text>
</g>
<!-- User -->
<g id="node5" class="node"><title>User</title>
<path fill="none" stroke="black" d="M665.588,-17.8C665.588,-17.8 782.412,-17.8 782.412,-17.8 788.412,-17.8 794.412,-23.8 794.412,-29.8 794.412,-29.8 794.412,-156.2 794.412,-156.2 794.412,-162.2 788.412,-168.2 782.412,-168.2 782.412,-168.2 665.588,-168.2 665.588,-168.2 659.588,-168.2 653.588,-162.2 653.588,-156.2 653.588,-156.2 653.588,-29.8 653.588,-29.8 653.588,-23.8 659.588,-17.8 665.588,-17.8"/>
<text text-anchor="middle" x="724" y="-150.2" font-family="Times,serif" font-size="14.00">User</text>
<polyline fill="none" stroke="black" points="653.588,-143.4 794.412,-143.4 "/>
<text text-anchor="start" x="661.588" y="-125.4" font-family="Times,serif" font-size="14.00">id :integer</text>
<text text-anchor="start" x="661.588" y="-108.6" font-family="Times,serif" font-size="14.00">username :string</text>
<text text-anchor="start" x="661.588" y="-91.8" font-family="Times,serif" font-size="14.00">email :string</text>
<text text-anchor="start" x="661.588" y="-75" font-family="Times,serif" font-size="14.00">password_hash :string</text>
<text text-anchor="start" x="661.588" y="-58.2" font-family="Times,serif" font-size="14.00">password_salt :string</text>
<text text-anchor="start" x="661.588" y="-41.4" font-family="Times,serif" font-size="14.00">count :integer</text>
<text text-anchor="start" x="661.588" y="-24.6" font-family="Times,serif" font-size="14.00">attempts :integer</text>
</g>
</g>
</svg>
